<svg width="204" height="204" viewBox="0 0 204 204" fill="none" xmlns="http://www.w3.org/2000/svg">
<path d="M65.8366 117.372C64.0548 117.362 62.3351 117.104 60.6775 116.597C59.0311 116.091 57.5538 115.268 56.2457 114.128C54.9376 112.988 53.9001 111.478 53.1333 109.598C52.3778 107.718 52 105.409 52 102.672C52.0113 100.159 52.3439 97.9135 52.998 95.9361C53.6633 93.9489 54.6106 92.2636 55.8397 90.8804C57.0802 89.4971 58.5631 88.4451 60.2884 87.7242C62.0138 86.9936 63.9477 86.6283 66.0903 86.6283C68.402 86.6283 70.4431 87.018 72.2136 87.7973C73.984 88.5668 75.4049 89.614 76.4762 90.9388C77.5588 92.2636 78.2128 93.7492 78.4383 95.3954H71.2156C70.9337 94.3531 70.3416 93.5349 69.4395 92.9406C68.5374 92.3464 67.421 92.0493 66.0903 92.0493C63.8349 92.0493 62.1209 92.8968 60.9481 94.5918C59.7866 96.2868 59.1946 98.5906 59.172 101.503H59.4088C59.9276 100.617 60.6267 99.8618 61.5063 99.2384C62.3972 98.6052 63.4064 98.123 64.5341 97.7918C65.6731 97.4508 66.874 97.2804 68.137 97.2804C70.1894 97.2804 72.0162 97.6992 73.6175 98.537C75.2188 99.365 76.4818 100.505 77.4065 101.956C78.3312 103.408 78.7936 105.068 78.7936 106.939C78.7936 108.965 78.2466 110.767 77.1528 112.345C76.0702 113.923 74.5535 115.16 72.6026 116.057C70.663 116.943 68.4077 117.381 65.8366 117.372ZM65.8027 112.404C66.9304 112.404 67.9397 112.17 68.8306 111.702C69.7214 111.235 70.4206 110.602 70.928 109.803C71.4355 109.004 71.6892 108.108 71.6892 107.114C71.6892 106.121 71.4355 105.229 70.928 104.44C70.4318 103.651 69.744 103.023 68.8644 102.555C67.9848 102.088 66.9812 101.854 65.8535 101.854C65.0077 101.854 64.224 101.99 63.5023 102.263C62.7918 102.536 62.166 102.916 61.6247 103.403C61.0947 103.89 60.6775 104.455 60.373 105.098C60.0685 105.731 59.9163 106.408 59.9163 107.129C59.9163 108.093 60.17 108.975 60.6775 109.774C61.1962 110.572 61.8953 111.21 62.7749 111.688C63.6658 112.165 64.6751 112.404 65.8027 112.404Z" fill="white"/>
<path d="M97.5693 117.62C94.6599 117.61 92.1565 116.992 90.059 115.764C87.9728 114.537 86.3659 112.759 85.2382 110.431C84.1218 108.103 83.5693 105.302 83.5805 102.029C83.5805 98.7659 84.1387 95.9848 85.2551 93.6858C86.3828 91.3869 87.9897 89.6384 90.0759 88.4402C92.1734 87.2323 94.6712 86.6283 97.5693 86.6283C100.467 86.6283 102.96 87.2323 105.046 88.4402C107.143 89.6481 108.756 91.4015 109.884 93.7005C111.011 95.9897 111.569 98.7659 111.558 102.029C111.558 105.312 110.994 108.118 109.867 110.446C108.75 112.774 107.149 114.552 105.063 115.779C102.977 117.006 100.479 117.62 97.5693 117.62ZM97.5693 112.374C99.5541 112.374 101.138 111.512 102.322 109.788C103.507 108.064 104.093 105.478 104.082 102.029C104.082 99.7595 103.811 97.8697 103.27 96.3598C102.74 94.8499 101.984 93.7151 101.003 92.9553C100.033 92.1954 98.8887 91.8155 97.5693 91.8155C95.5959 91.8155 94.0172 92.6679 92.8331 94.3726C91.6491 96.0773 91.0514 98.6295 91.0401 102.029C91.0401 104.328 91.3051 106.247 91.8351 107.786C92.3764 109.316 93.1376 110.465 94.1187 111.235C95.0997 111.995 96.25 112.374 97.5693 112.374Z" fill="white"/>
<path d="M135.743 111.352V109.774C135.743 108.575 136.036 107.475 136.622 106.471C137.22 105.458 138.082 104.65 139.21 104.046C140.349 103.432 141.736 103.125 143.371 103.125C145.029 103.125 146.422 103.427 147.549 104.031C148.688 104.635 149.545 105.444 150.12 106.457C150.707 107.46 151 108.566 151 109.774V111.352C151 112.55 150.707 113.655 150.12 114.668C149.534 115.672 148.671 116.475 147.532 117.079C146.393 117.693 145.006 118 143.371 118C141.714 118 140.321 117.693 139.193 117.079C138.066 116.475 137.209 115.672 136.622 114.668C136.036 113.655 135.743 112.55 135.743 111.352ZM140.665 109.774V111.352C140.665 112.043 140.857 112.696 141.24 113.31C141.635 113.923 142.345 114.23 143.371 114.23C144.397 114.23 145.097 113.928 145.469 113.324C145.852 112.72 146.044 112.063 146.044 111.352V109.774C146.044 109.062 145.863 108.4 145.503 107.786C145.142 107.173 144.431 106.866 143.371 106.866C142.356 106.866 141.652 107.173 141.257 107.786C140.862 108.4 140.665 109.062 140.665 109.774ZM117.965 94.2265V92.6484C117.965 91.4405 118.264 90.3349 118.861 89.3315C119.459 88.3184 120.322 87.5099 121.449 86.9059C122.588 86.302 123.964 86 125.577 86C127.246 86 128.644 86.302 129.772 86.9059C130.899 87.5099 131.756 88.3184 132.343 89.3315C132.929 90.3349 133.222 91.4405 133.222 92.6484V94.2265C133.222 95.4344 132.923 96.54 132.326 97.5434C131.739 98.5467 130.877 99.3504 129.738 99.9543C128.61 100.549 127.223 100.846 125.577 100.846C123.93 100.846 122.537 100.544 121.399 99.9397C120.271 99.326 119.414 98.5224 118.827 97.5288C118.252 96.5254 117.965 95.4247 117.965 94.2265ZM122.921 92.6484V94.2265C122.921 94.9376 123.113 95.5951 123.496 96.1991C123.891 96.803 124.584 97.105 125.577 97.105C126.614 97.105 127.319 96.803 127.691 96.1991C128.074 95.5951 128.266 94.9376 128.266 94.2265V92.6484C128.266 91.9373 128.086 91.2749 127.725 90.6612C127.364 90.0475 126.648 89.7406 125.577 89.7406C124.573 89.7406 123.879 90.0524 123.496 90.6758C123.113 91.2992 122.921 91.9568 122.921 92.6484ZM120.198 116.963L144.014 87.0374H148.446L124.629 116.963H120.198Z" fill="white"/>
<path d="M102 0C122.447 2.43824e-07 142.421 6.14505 159.333 17.6378L144.999 38.7283C132.316 30.1088 117.335 25.5 102 25.5L102 0Z" fill="#16A799"/>
<path d="M161.964 19.4875C178.504 31.5078 191.05 48.2216 197.974 67.4603L173.981 76.0952C168.788 61.6662 159.378 49.1308 146.973 40.1156L161.964 19.4875Z" fill="#16A799"/>
<path d="M198.858 70.023C205.268 89.4389 205.695 110.333 200.083 129.995L175.562 122.996C179.771 108.25 179.451 92.5792 174.643 78.0173L198.858 70.023Z" fill="#16A799"/>
<path d="M199.191 132.949C192.987 152.432 181.071 169.6 164.989 182.227L149.242 162.17C161.303 152.7 170.24 139.824 174.893 125.212L199.191 132.949Z" fill="#16A799"/>
<path d="M162.46 184.15C145.992 196.27 126.262 203.16 105.83 203.928L104.873 178.446C120.197 177.87 134.994 172.702 147.345 163.612L162.46 184.15Z" fill="#16A799"/>
<path d="M102 204C81.5533 204 61.5786 197.855 44.6675 186.362L59.0006 165.272C71.6839 173.891 86.665 178.5 102 178.5L102 204Z" fill="#16A799"/>
<path d="M42.5807 184.906C25.9617 172.995 13.3059 156.364 6.25558 137.171L30.1917 128.378C35.4794 142.773 44.9712 155.246 57.4356 164.179L42.5807 184.906Z" fill="#BCCCBF"/>
<path d="M5.20471 134.166C-1.24328 114.763 -1.71096 93.8695 3.86235 74.1971L28.3968 81.1478C24.2168 95.9022 24.5675 111.572 29.4035 126.125L5.20471 134.166Z" fill="#BCCCBF"/>
<path d="M4.73187 71.2931C10.8873 51.795 22.7606 34.5968 38.8112 21.9302L54.6084 41.9476C42.5705 51.4476 33.6655 64.3463 29.0489 78.9699L4.73187 71.2931Z" fill="#BCCCBF"/>
<path d="M41.4776 19.8962C57.9359 7.76401 77.6606 0.858219 98.0923 0.0748824L99.0692 25.5562C83.7454 26.1437 68.9519 31.323 56.6082 40.4222L41.4776 19.8962Z" fill="#BCCCBF"/>
</svg>
