<svg width="204" height="204" viewBox="0 0 204 204" fill="none" xmlns="http://www.w3.org/2000/svg">
<path d="M102 0C122.447 2.43824e-07 142.421 6.14505 159.333 17.6378L144.999 38.7283C132.316 30.1088 117.335 25.5 102 25.5L102 0Z" fill="#16A799"/>
<path d="M161.964 19.4875C178.504 31.5078 191.05 48.2216 197.974 67.4603L173.981 76.0952C168.788 61.6662 159.378 49.1308 146.973 40.1156L161.964 19.4875Z" fill="#16A799"/>
<path d="M198.858 70.023C205.268 89.4389 205.695 110.333 200.083 129.995L175.562 122.996C179.771 108.25 179.451 92.5792 174.643 78.0173L198.858 70.023Z" fill="#16A799"/>
<path d="M199.191 132.949C192.987 152.432 181.071 169.6 164.989 182.227L149.242 162.17C161.303 152.7 170.24 139.824 174.893 125.212L199.191 132.949Z" fill="#16A799"/>
<path d="M162.46 184.15C145.992 196.27 126.262 203.16 105.83 203.928L104.873 178.446C120.197 177.87 134.994 172.702 147.345 163.612L162.46 184.15Z" fill="#16A799"/>
<path d="M102 204C81.5533 204 61.5786 197.855 44.6675 186.362L59.0006 165.272C71.6839 173.891 86.665 178.5 102 178.5L102 204Z" fill="#16A799"/>
<path d="M42.5807 184.906C25.9617 172.995 13.3059 156.364 6.25558 137.171L30.1917 128.378C35.4794 142.773 44.9712 155.246 57.4356 164.179L42.5807 184.906Z" fill="#16A799"/>
<path d="M5.20471 134.166C-1.24328 114.763 -1.71096 93.8695 3.86235 74.1971L28.3968 81.1478C24.2168 95.9022 24.5675 111.572 29.4035 126.125L5.20471 134.166Z" fill="#BCCCBF"/>
<path d="M4.73187 71.2931C10.8873 51.795 22.7606 34.5968 38.8112 21.9302L54.6084 41.9476C42.5705 51.4476 33.6655 64.3463 29.0489 78.9699L4.73187 71.2931Z" fill="#BCCCBF"/>
<path d="M41.4776 19.8962C57.9359 7.76401 77.6606 0.858219 98.0923 0.0748824L99.0692 25.5562C83.7454 26.1437 68.9519 31.323 56.6082 40.4222L41.4776 19.8962Z" fill="#BCCCBF"/>
<path d="M54.4524 118.703L69.3248 88.0183V87.7626H52V81.2968H77.1726V87.8539L62.2828 118.703H54.4524Z" fill="white"/>
<path d="M95.6667 119.525C92.6537 119.513 90.0611 118.74 87.8889 117.205C85.7284 115.671 84.0643 113.449 82.8964 110.539C81.7403 107.629 81.1681 104.128 81.1797 100.037C81.1797 95.9574 81.7578 92.481 82.914 89.6073C84.0818 86.7336 85.746 84.5479 87.9064 83.0502C90.0786 81.5403 92.6654 80.7854 95.6667 80.7854C98.668 80.7854 101.249 81.5403 103.409 83.0502C105.582 84.5601 107.252 86.7519 108.419 89.6256C109.587 92.4871 110.165 95.9574 110.154 100.037C110.154 104.14 109.57 107.647 108.402 110.557C107.246 113.467 105.587 115.689 103.427 117.224C101.266 118.758 98.6797 119.525 95.6667 119.525ZM95.6667 112.968C97.7221 112.968 99.3629 111.89 100.589 109.735C101.815 107.58 102.423 104.347 102.411 100.037C102.411 97.1994 102.131 94.8371 101.57 92.9498C101.021 91.0624 100.239 89.6438 99.2227 88.6941C98.2184 87.7443 97.033 87.2694 95.6667 87.2694C93.623 87.2694 91.988 88.3349 90.7618 90.4658C89.5356 92.5967 88.9166 95.7869 88.9049 100.037C88.9049 102.91 89.1794 105.309 89.7283 107.233C90.2888 109.145 91.0771 110.581 92.0931 111.543C93.1091 112.493 94.3003 112.968 95.6667 112.968Z" fill="white"/>
<path d="M135.199 111.689V109.717C135.199 108.219 135.503 106.843 136.11 105.589C136.729 104.323 137.622 103.312 138.79 102.557C139.97 101.79 141.406 101.406 143.1 101.406C144.816 101.406 146.259 101.784 147.426 102.539C148.606 103.294 149.493 104.304 150.089 105.571C150.696 106.825 151 108.207 151 109.717V111.689C151 113.187 150.696 114.569 150.089 115.836C149.482 117.09 148.588 118.094 147.409 118.849C146.229 119.616 144.793 120 143.1 120C141.383 120 139.941 119.616 138.773 118.849C137.605 118.094 136.717 117.09 136.11 115.836C135.503 114.569 135.199 113.187 135.199 111.689ZM140.297 109.717V111.689C140.297 112.554 140.495 113.37 140.892 114.137C141.301 114.904 142.037 115.288 143.1 115.288C144.162 115.288 144.886 114.91 145.272 114.155C145.669 113.4 145.867 112.578 145.867 111.689V109.717C145.867 108.828 145.681 108 145.307 107.233C144.933 106.466 144.197 106.082 143.1 106.082C142.049 106.082 141.319 106.466 140.91 107.233C140.501 108 140.297 108.828 140.297 109.717ZM116.788 90.2831V88.3105C116.788 86.8006 117.098 85.4186 117.717 84.1644C118.336 82.898 119.229 81.8874 120.397 81.1324C121.576 80.3775 123.001 80 124.671 80C126.4 80 127.848 80.3775 129.016 81.1324C130.183 81.8874 131.071 82.898 131.678 84.1644C132.286 85.4186 132.589 86.8006 132.589 88.3105V90.2831C132.589 91.793 132.28 93.175 131.661 94.4292C131.053 95.6834 130.16 96.688 128.981 97.4429C127.813 98.1857 126.376 98.5571 124.671 98.5571C122.966 98.5571 121.524 98.1796 120.344 97.4247C119.177 96.6575 118.289 95.653 117.682 94.411C117.086 93.1568 116.788 91.7808 116.788 90.2831ZM121.921 88.3105V90.2831C121.921 91.172 122.12 91.9939 122.517 92.7489C122.925 93.5038 123.644 93.8813 124.671 93.8813C125.746 93.8813 126.476 93.5038 126.861 92.7489C127.258 91.9939 127.457 91.172 127.457 90.2831V88.3105C127.457 87.4216 127.27 86.5936 126.896 85.8265C126.522 85.0594 125.781 84.6758 124.671 84.6758C123.632 84.6758 122.914 85.0654 122.517 85.8447C122.12 86.624 121.921 87.446 121.921 88.3105ZM119.101 118.703L143.765 81.2968H148.355L123.69 118.703H119.101Z" fill="white"/>
</svg>
